<?xml version="1.0" standalone="no"?><!-- Created with ZXing.Net (http://zxingnet.codeplex.com/) --><!DOCTYPE svg PUBLIC "-//W3C//DTD SVG 1.1//EN" "http://www.w3.org/Graphics/SVG/1.1/DTD/svg11.dtd"><svg xmlns="http://www.w3.org/2000/svg" version="1.2" baseProfile="tiny" shape-rendering="crispEdges" viewBox="0 0 250 250" viewport-fill="rgb(255,255,255)" viewport-fill-opacity="1" fill="rgb(0,0,0)" fill-opacity="1" style="background-color:rgb(255,255,255);background-color:rgba(255, 255, 255, 1);"><rect x="12" y="12" width="5" height="35"/><rect x="12" y="52" width="25" height="5"/><rect x="12" y="62" width="15" height="5"/><rect x="12" y="72" width="5" height="20"/><rect x="12" y="107" width="5" height="5"/><rect x="12" y="117" width="10" height="25"/><rect x="12" y="147" width="5" height="30"/><rect x="12" y="192" width="5" height="5"/><rect x="12" y="202" width="5" height="35"/><rect x="17" y="12" width="30" height="5"/><rect x="17" y="42" width="30" height="5"/><rect x="17" y="57" width="5" height="15"/><rect x="17" y="97" width="5" height="10"/><rect x="17" y="112" width="5" height="30"/><rect x="17" y="147" width="5" height="5"/><rect x="17" y="162" width="10" height="10"/><rect x="17" y="187" width="20" height="5"/><rect x="17" y="202" width="30" height="5"/><rect x="17" y="232" width="30" height="5"/><rect x="22" y="22" width="15" height="15"/><rect x="22" y="77" width="5" height="20"/><rect x="22" y="142" width="5" height="5"/><rect x="22" y="152" width="25" height="5"/><rect x="22" y="177" width="10" height="5"/><rect x="22" y="212" width="15" height="15"/><rect x="27" y="57" width="5" height="5"/><rect x="27" y="77" width="5" height="5"/><rect x="27" y="87" width="15" height="10"/><rect x="27" y="102" width="5" height="5"/><rect x="27" y="117" width="10" height="5"/><rect x="27" y="172" width="5" height="10"/><rect x="27" y="192" width="10" height="5"/><rect x="32" y="67" width="10" height="10"/><rect x="32" y="82" width="5" height="20"/><rect x="32" y="112" width="5" height="25"/><rect x="32" y="147" width="5" height="15"/><rect x="32" y="167" width="5" height="10"/><rect x="32" y="182" width="5" height="15"/><rect x="37" y="77" width="5" height="20"/><rect x="37" y="102" width="5" height="15"/><rect x="37" y="132" width="5" height="25"/><rect x="37" y="177" width="5" height="5"/><rect x="42" y="17" width="5" height="30"/><rect x="42" y="52" width="25" height="5"/><rect x="42" y="62" width="10" height="5"/><rect x="42" y="72" width="10" height="5"/><rect x="42" y="82" width="5" height="5"/><rect x="42" y="92" width="10" height="5"/><rect x="42" y="102" width="5" height="5"/><rect x="42" y="112" width="15" height="5"/><rect x="42" y="122" width="5" height="5"/><rect x="42" y="132" width="15" height="5"/><rect x="42" y="142" width="5" height="5"/><rect x="42" y="162" width="10" height="5"/><rect x="42" y="172" width="10" height="5"/><rect x="42" y="182" width="5" height="5"/><rect x="42" y="192" width="5" height="5"/><rect x="42" y="207" width="5" height="30"/><rect x="47" y="57" width="5" height="10"/><rect x="47" y="77" width="10" height="5"/><rect x="47" y="87" width="5" height="15"/><rect x="47" y="137" width="15" height="5"/><rect x="47" y="147" width="5" height="5"/><rect x="47" y="157" width="5" height="10"/><rect x="47" y="177" width="5" height="5"/><rect x="47" y="187" width="15" height="5"/><rect x="52" y="17" width="10" height="5"/><rect x="52" y="27" width="5" height="5"/><rect x="52" y="37" width="5" height="10"/><rect x="52" y="57" width="5" height="5"/><rect x="52" y="67" width="10" height="5"/><rect x="52" y="97" width="5" height="50"/><rect x="52" y="157" width="10" height="5"/><rect x="52" y="197" width="5" height="10"/><rect x="52" y="212" width="5" height="25"/><rect x="57" y="12" width="5" height="15"/><rect x="57" y="32" width="5" height="10"/><rect x="57" y="82" width="15" height="5"/><rect x="57" y="97" width="10" height="5"/><rect x="57" y="107" width="5" height="5"/><rect x="57" y="117" width="5" height="15"/><rect x="57" y="142" width="5" height="20"/><rect x="57" y="167" width="5" height="5"/><rect x="57" y="177" width="5" height="20"/><rect x="57" y="207" width="10" height="10"/><rect x="57" y="232" width="10" height="5"/><rect x="62" y="12" width="10" height="5"/><rect x="62" y="22" width="5" height="15"/><rect x="62" y="42" width="5" height="25"/><rect x="62" y="77" width="5" height="10"/><rect x="62" y="112" width="5" height="5"/><rect x="62" y="132" width="5" height="5"/><rect x="62" y="142" width="5" height="5"/><rect x="62" y="172" width="5" height="10"/><rect x="62" y="197" width="25" height="5"/><rect x="62" y="217" width="10" height="5"/><rect x="67" y="27" width="5" height="5"/><rect x="67" y="37" width="10" height="5"/><rect x="67" y="57" width="5" height="20"/><rect x="67" y="107" width="15" height="5"/><rect x="67" y="122" width="5" height="5"/><rect x="67" y="137" width="5" height="5"/><rect x="67" y="147" width="5" height="10"/><rect x="67" y="162" width="5" height="5"/><rect x="67" y="172" width="25" height="5"/><rect x="67" y="182" width="10" height="5"/><rect x="67" y="227" width="5" height="5"/><rect x="72" y="22" width="5" height="5"/><rect x="72" y="32" width="5" height="20"/><rect x="72" y="62" width="5" height="5"/><rect x="72" y="72" width="5" height="10"/><rect x="72" y="92" width="20" height="5"/><rect x="72" y="127" width="5" height="10"/><rect x="72" y="157" width="5" height="5"/><rect x="72" y="167" width="5" height="25"/><rect x="72" y="207" width="5" height="10"/><rect x="77" y="17" width="5" height="5"/><rect x="77" y="27" width="5" height="5"/><rect x="77" y="47" width="5" height="5"/><rect x="77" y="57" width="5" height="5"/><rect x="77" y="67" width="5" height="10"/><rect x="77" y="82" width="40" height="5"/><rect x="77" y="102" width="5" height="20"/><rect x="77" y="127" width="5" height="5"/><rect x="77" y="137" width="5" height="5"/><rect x="77" y="147" width="5" height="5"/><rect x="77" y="162" width="15" height="5"/><rect x="77" y="207" width="5" height="5"/><rect x="77" y="217" width="5" height="5"/><rect x="82" y="42" width="5" height="5"/><rect x="82" y="62" width="5" height="10"/><rect x="82" y="77" width="5" height="20"/><rect x="82" y="117" width="5" height="5"/><rect x="82" y="142" width="5" height="5"/><rect x="82" y="157" width="5" height="20"/><rect x="82" y="187" width="5" height="5"/><rect x="82" y="222" width="5" height="10"/><rect x="87" y="17" width="10" height="5"/><rect x="87" y="27" width="20" height="5"/><rect x="87" y="57" width="5" height="5"/><rect x="87" y="67" width="5" height="10"/><rect x="87" y="87" width="5" height="10"/><rect x="87" y="102" width="20" height="5"/><rect x="87" y="127" width="5" height="5"/><rect x="87" y="137" width="5" height="5"/><rect x="87" y="147" width="5" height="10"/><rect x="87" y="167" width="5" height="10"/><rect x="87" y="182" width="15" height="5"/><rect x="87" y="192" width="10" height="5"/><rect x="87" y="207" width="5" height="15"/><rect x="92" y="12" width="5" height="20"/><rect x="92" y="42" width="5" height="5"/><rect x="92" y="72" width="5" height="5"/><rect x="92" y="97" width="5" height="20"/><rect x="92" y="152" width="5" height="5"/><rect x="92" y="167" width="10" height="5"/><rect x="92" y="177" width="5" height="20"/><rect x="92" y="202" width="5" height="5"/><rect x="92" y="227" width="5" height="5"/><rect x="97" y="12" width="5" height="5"/><rect x="97" y="22" width="5" height="10"/><rect x="97" y="57" width="5" height="15"/><rect x="97" y="77" width="5" height="10"/><rect x="97" y="97" width="5" height="15"/><rect x="97" y="122" width="10" height="5"/><rect x="97" y="137" width="5" height="5"/><rect x="97" y="212" width="5" height="10"/><rect x="97" y="232" width="10" height="5"/><rect x="102" y="17" width="5" height="5"/><rect x="102" y="42" width="5" height="15"/><rect x="102" y="62" width="5" height="15"/><rect x="102" y="92" width="10" height="5"/><rect x="102" y="112" width="40" height="5"/><rect x="102" y="127" width="5" height="10"/><rect x="102" y="142" width="5" height="5"/><rect x="102" y="152" width="5" height="5"/><rect x="102" y="162" width="5" height="5"/><rect x="102" y="172" width="5" height="5"/><rect x="102" y="187" width="5" height="10"/><rect x="102" y="202" width="15" height="5"/><rect x="102" y="212" width="5" height="5"/><rect x="102" y="222" width="5" height="5"/><rect x="107" y="22" width="5" height="5"/><rect x="107" y="32" width="30" height="5"/><rect x="107" y="62" width="15" height="5"/><rect x="107" y="72" width="5" height="15"/><rect x="107" y="107" width="5" height="10"/><rect x="107" y="137" width="10" height="5"/><rect x="107" y="157" width="5" height="5"/><rect x="107" y="177" width="10" height="5"/><rect x="107" y="197" width="10" height="10"/><rect x="107" y="217" width="5" height="5"/><rect x="107" y="227" width="25" height="5"/><rect x="112" y="17" width="5" height="5"/><rect x="112" y="27" width="5" height="30"/><rect x="112" y="102" width="5" height="5"/><rect x="112" y="117" width="5" height="25"/><rect x="112" y="147" width="5" height="10"/><rect x="112" y="167" width="5" height="5"/><rect x="112" y="187" width="5" height="30"/><rect x="112" y="222" width="5" height="10"/><rect x="117" y="22" width="5" height="5"/><rect x="117" y="52" width="5" height="20"/><rect x="117" y="77" width="15" height="5"/><rect x="117" y="87" width="5" height="5"/><rect x="117" y="97" width="5" height="5"/><rect x="117" y="107" width="5" height="10"/><rect x="117" y="132" width="20" height="5"/><rect x="117" y="147" width="20" height="5"/><rect x="117" y="157" width="10" height="5"/><rect x="117" y="172" width="5" height="5"/><rect x="117" y="187" width="10" height="10"/><rect x="117" y="212" width="5" height="10"/><rect x="122" y="27" width="5" height="10"/><rect x="122" y="42" width="5" height="5"/><rect x="122" y="52" width="15" height="5"/><rect x="122" y="72" width="10" height="10"/><rect x="122" y="92" width="5" height="5"/><rect x="122" y="122" width="5" height="5"/><rect x="122" y="137" width="20" height="5"/><rect x="122" y="167" width="20" height="5"/><rect x="122" y="177" width="15" height="5"/><rect x="122" y="202" width="5" height="5"/><rect x="122" y="212" width="15" height="5"/><rect x="122" y="222" width="10" height="10"/><rect x="127" y="12" width="5" height="5"/><rect x="127" y="22" width="5" height="5"/><rect x="127" y="62" width="10" height="5"/><rect x="127" y="87" width="10" height="5"/><rect x="127" y="97" width="5" height="5"/><rect x="127" y="152" width="20" height="5"/><rect x="127" y="172" width="5" height="15"/><rect x="127" y="192" width="15" height="5"/><rect x="127" y="217" width="5" height="15"/><rect x="132" y="17" width="15" height="5"/><rect x="132" y="27" width="5" height="30"/><rect x="132" y="72" width="5" height="5"/><rect x="132" y="82" width="5" height="15"/><rect x="132" y="102" width="5" height="40"/><rect x="132" y="157" width="10" height="5"/><rect x="132" y="187" width="5" height="30"/><rect x="132" y="222" width="20" height="5"/><rect x="132" y="232" width="20" height="5"/><rect x="137" y="37" width="10" height="5"/><rect x="137" y="47" width="5" height="5"/><rect x="137" y="57" width="5" height="5"/><rect x="137" y="82" width="15" height="5"/><rect x="137" y="92" width="5" height="10"/><rect x="137" y="117" width="5" height="5"/><rect x="137" y="127" width="5" height="5"/><rect x="137" y="182" width="5" height="15"/><rect x="137" y="202" width="10" height="5"/><rect x="137" y="227" width="5" height="10"/><rect x="142" y="27" width="5" height="5"/><rect x="142" y="42" width="5" height="5"/><rect x="142" y="62" width="5" height="5"/><rect x="142" y="72" width="10" height="5"/><rect x="142" y="92" width="10" height="5"/><rect x="142" y="102" width="5" height="5"/><rect x="142" y="122" width="5" height="5"/><rect x="142" y="132" width="10" height="5"/><rect x="142" y="142" width="5" height="5"/><rect x="142" y="162" width="5" height="5"/><rect x="142" y="182" width="10" height="5"/><rect x="142" y="207" width="15" height="5"/><rect x="147" y="22" width="10" height="5"/><rect x="147" y="32" width="10" height="5"/><rect x="147" y="52" width="5" height="5"/><rect x="147" y="97" width="5" height="5"/><rect x="147" y="112" width="5" height="10"/><rect x="147" y="137" width="10" height="5"/><rect x="147" y="147" width="70" height="5"/><rect x="147" y="172" width="5" height="15"/><rect x="147" y="192" width="5" height="5"/><rect x="152" y="42" width="5" height="10"/><rect x="152" y="57" width="15" height="5"/><rect x="152" y="67" width="5" height="5"/><rect x="152" y="87" width="15" height="5"/><rect x="152" y="107" width="5" height="5"/><rect x="152" y="117" width="5" height="5"/><rect x="152" y="127" width="25" height="5"/><rect x="152" y="167" width="5" height="5"/><rect x="152" y="177" width="5" height="5"/><rect x="152" y="187" width="30" height="5"/><rect x="152" y="197" width="15" height="5"/><rect x="152" y="217" width="20" height="5"/><rect x="152" y="227" width="25" height="5"/><rect x="157" y="17" width="5" height="5"/><rect x="157" y="37" width="5" height="5"/><rect x="157" y="82" width="5" height="10"/><rect x="157" y="102" width="5" height="5"/><rect x="157" y="112" width="15" height="5"/><rect x="157" y="122" width="5" height="15"/><rect x="157" y="142" width="5" height="10"/><rect x="157" y="162" width="5" height="5"/><rect x="157" y="172" width="10" height="5"/><rect x="157" y="182" width="5" height="20"/><rect x="162" y="12" width="15" height="5"/><rect x="162" y="22" width="5" height="5"/><rect x="162" y="32" width="15" height="5"/><rect x="162" y="42" width="5" height="10"/><rect x="162" y="67" width="20" height="5"/><rect x="162" y="77" width="5" height="5"/><rect x="162" y="92" width="5" height="10"/><rect x="162" y="107" width="5" height="15"/><rect x="162" y="132" width="5" height="10"/><rect x="162" y="152" width="5" height="10"/><rect x="162" y="177" width="5" height="5"/><rect x="162" y="207" width="5" height="5"/><rect x="167" y="27" width="5" height="10"/><rect x="167" y="52" width="5" height="5"/><rect x="167" y="117" width="5" height="15"/><rect x="167" y="162" width="5" height="5"/><rect x="167" y="182" width="5" height="10"/><rect x="167" y="212" width="5" height="10"/><rect x="172" y="22" width="10" height="5"/><rect x="172" y="42" width="5" height="10"/><rect x="172" y="57" width="5" height="5"/><rect x="172" y="77" width="10" height="5"/><rect x="172" y="87" width="15" height="5"/><rect x="172" y="97" width="5" height="15"/><rect x="172" y="137" width="5" height="5"/><rect x="172" y="167" width="5" height="5"/><rect x="172" y="197" width="5" height="5"/><rect x="172" y="207" width="5" height="5"/><rect x="172" y="222" width="5" height="10"/><rect x="177" y="17" width="5" height="15"/><rect x="177" y="52" width="5" height="5"/><rect x="177" y="62" width="5" height="20"/><rect x="177" y="102" width="10" height="10"/><rect x="177" y="117" width="5" height="5"/><rect x="177" y="142" width="10" height="10"/><rect x="177" y="157" width="5" height="5"/><rect x="177" y="172" width="10" height="5"/><rect x="177" y="202" width="20" height="5"/><rect x="177" y="212" width="5" height="5"/><rect x="177" y="222" width="5" height="5"/><rect x="177" y="232" width="5" height="5"/><rect x="182" y="32" width="15" height="5"/><rect x="182" y="42" width="5" height="10"/><rect x="182" y="62" width="10" height="5"/><rect x="182" y="82" width="5" height="10"/><rect x="182" y="122" width="5" height="5"/><rect x="182" y="162" width="5" height="15"/><rect x="182" y="182" width="5" height="5"/><rect x="187" y="17" width="5" height="20"/><rect x="187" y="57" width="5" height="10"/><rect x="187" y="77" width="10" height="10"/><rect x="187" y="97" width="15" height="5"/><rect x="187" y="112" width="10" height="10"/><rect x="187" y="137" width="5" height="5"/><rect x="187" y="162" width="5" height="10"/><rect x="187" y="177" width="10" height="5"/><rect x="187" y="187" width="25" height="5"/><rect x="187" y="217" width="5" height="5"/><rect x="187" y="227" width="5" height="5"/><rect x="192" y="12" width="5" height="5"/><rect x="192" y="27" width="5" height="10"/><rect x="192" y="42" width="5" height="10"/><rect x="192" y="57" width="10" height="5"/><rect x="192" y="67" width="10" height="5"/><rect x="192" y="92" width="5" height="10"/><rect x="192" y="107" width="5" height="30"/><rect x="192" y="142" width="5" height="15"/><rect x="192" y="162" width="10" height="5"/><rect x="192" y="172" width="5" height="45"/><rect x="192" y="222" width="10" height="5"/><rect x="192" y="232" width="5" height="5"/><rect x="197" y="52" width="5" height="20"/><rect x="197" y="82" width="10" height="5"/><rect x="197" y="107" width="5" height="10"/><rect x="197" y="132" width="20" height="5"/><rect x="197" y="152" width="5" height="15"/><rect x="197" y="172" width="5" height="5"/><rect x="197" y="192" width="25" height="5"/><rect x="197" y="212" width="25" height="5"/><rect x="202" y="12" width="5" height="35"/><rect x="202" y="62" width="5" height="5"/><rect x="202" y="72" width="10" height="5"/><rect x="202" y="92" width="5" height="5"/><rect x="202" y="102" width="10" height="5"/><rect x="202" y="112" width="20" height="5"/><rect x="202" y="122" width="5" height="5"/><rect x="202" y="157" width="5" height="5"/><rect x="202" y="167" width="10" height="5"/><rect x="202" y="177" width="10" height="5"/><rect x="202" y="202" width="5" height="5"/><rect x="202" y="217" width="25" height="5"/><rect x="202" y="232" width="15" height="5"/><rect x="207" y="12" width="30" height="5"/><rect x="207" y="42" width="30" height="5"/><rect x="207" y="52" width="5" height="5"/><rect x="207" y="77" width="5" height="5"/><rect x="207" y="87" width="20" height="5"/><rect x="207" y="137" width="5" height="5"/><rect x="207" y="162" width="5" height="10"/><rect x="207" y="182" width="5" height="15"/><rect x="207" y="222" width="5" height="15"/><rect x="212" y="22" width="15" height="15"/><rect x="212" y="67" width="5" height="5"/><rect x="212" y="97" width="15" height="5"/><rect x="212" y="107" width="5" height="30"/><rect x="212" y="162" width="15" height="5"/><rect x="212" y="172" width="5" height="5"/><rect x="212" y="182" width="10" height="5"/><rect x="212" y="197" width="5" height="25"/><rect x="212" y="227" width="5" height="10"/><rect x="217" y="52" width="5" height="5"/><rect x="217" y="72" width="5" height="5"/><rect x="217" y="82" width="10" height="10"/><rect x="217" y="117" width="5" height="15"/><rect x="217" y="137" width="10" height="5"/><rect x="217" y="152" width="5" height="15"/><rect x="217" y="222" width="10" height="10"/><rect x="222" y="57" width="5" height="15"/><rect x="222" y="77" width="5" height="15"/><rect x="222" y="107" width="5" height="5"/><rect x="222" y="122" width="5" height="10"/><rect x="222" y="147" width="15" height="5"/><rect x="222" y="157" width="5" height="15"/><rect x="222" y="177" width="15" height="5"/><rect x="222" y="187" width="10" height="5"/><rect x="222" y="197" width="15" height="5"/><rect x="222" y="207" width="10" height="5"/><rect x="227" y="52" width="5" height="5"/><rect x="227" y="62" width="5" height="5"/><rect x="227" y="72" width="10" height="10"/><rect x="227" y="92" width="5" height="5"/><rect x="227" y="102" width="5" height="5"/><rect x="227" y="122" width="5" height="5"/><rect x="227" y="132" width="5" height="5"/><rect x="227" y="157" width="10" height="5"/><rect x="227" y="167" width="5" height="35"/><rect x="227" y="232" width="5" height="5"/><rect x="232" y="17" width="5" height="30"/><rect x="232" y="57" width="5" height="5"/><rect x="232" y="67" width="5" height="15"/><rect x="232" y="87" width="5" height="5"/><rect x="232" y="107" width="5" height="5"/><rect x="232" y="117" width="5" height="5"/><rect x="232" y="127" width="5" height="5"/><rect x="232" y="137" width="5" height="5"/><rect x="232" y="152" width="5" height="10"/><rect x="232" y="192" width="5" height="10"/><rect x="232" y="212" width="5" height="5"/><rect x="232" y="222" width="5" height="5"/></svg>